<?xml version="1.0" encoding="UTF-8"?>
<svg width="309px" height="64px" viewBox="0 0 309 64" version="1.1" xmlns="http://www.w3.org/2000/svg" xmlns:xlink="http://www.w3.org/1999/xlink">
    <!-- Generator: Sketch 3.8.3 (29802) - http://www.bohemiancoding.com/sketch -->
    <title>LOGO</title>
    <desc>Created with Sketch.</desc>
    <defs>
        <polygon id="path-1" points="33.4801845 32.0337778 33.4801845 0.646169935 0.282492243 0.646169935 0.282492243 32.0337778 33.4801845 32.0337778"></polygon>
    </defs>
    <g id="Welcome" stroke="none" stroke-width="1" fill="none" fill-rule="evenodd">
        <g id="Desktop-HD" transform="translate(-82.000000, -78.000000)">
            <g id="LOGO" transform="translate(82.000000, 78.000000)">
                <g id="Group">
                    <path d="M0,0.650039216 C2.39101048,0.835764706 4.78202096,0.928627451 7.17497694,0.928627451 C8.41425577,0.928627451 9.66131656,0.897673203 10.9142138,0.835764706 C12.1690566,0.773856209 13.4141719,0.711947712 14.6534507,0.650039216 L14.6534507,1.76439216 C14.192369,1.82630065 13.7312872,1.90368627 13.2702055,1.99654902 C12.8091237,2.08941176 12.3986247,2.23644444 12.0387086,2.43764706 C11.676847,2.63884967 11.388914,2.90969935 11.1749099,3.25019608 C10.9570147,3.59262745 10.8500126,4.07048366 10.8500126,4.68956863 C10.8500126,5.15388235 11.0717987,6.01286275 11.5192621,7.2665098 C11.9667254,8.52015686 12.5425912,10.0446536 13.248805,11.84 C13.9550189,13.6353464 14.7546164,15.6415686 15.6475975,17.8528627 C16.5405786,20.0660915 17.4199413,22.3644444 18.2856855,24.7479216 C19.2370314,22.1477647 20.1358491,19.7410719 20.9879748,17.5278431 C21.8362096,15.316549 22.5852243,13.3432157 23.2350189,11.6078431 C23.8828679,9.87440523 24.3945325,8.41181699 24.7680671,7.22007843 C25.1435472,6.02833987 25.33226,5.15388235 25.33226,4.59670588 C25.33226,4.03952941 25.19413,3.57521569 24.921761,3.20376471 C24.645501,2.83231373 24.3011488,2.54598693 23.8828679,2.34478431 C23.464587,2.1435817 23.0326876,1.99654902 22.5852243,1.90368627 C22.1397065,1.81082353 21.742826,1.76439216 21.3984738,1.76439216 L21.3984738,0.650039216 C22.3186918,0.711947712 23.2564193,0.773856209 24.2077652,0.835764706 C25.1591111,0.897673203 26.0948931,0.928627451 27.0170566,0.928627451 C27.851673,0.928627451 28.6960168,0.897673203 29.5461971,0.835764706 C30.3963774,0.773856209 31.2387757,0.711947712 32.0753375,0.650039216 L32.0753375,1.76439216 C31.5267086,1.88820915 31.0500629,2.02750327 30.6473459,2.18227451 C30.2446289,2.33898039 29.8983312,2.5305098 29.6103983,2.76266667 C29.3224654,2.99482353 29.0617694,3.28115033 28.8322013,3.62164706 C28.6026331,3.96214379 28.3711195,4.38002614 28.1415514,4.87529412 C25.8633795,9.82797386 23.8459036,14.4633725 22.0891237,18.7814902 C20.3303983,23.0996078 18.7448218,27.3326013 17.3343396,31.4804706 L14.9569476,31.4804706 C14.1203857,29.5013333 13.2779874,27.4254641 12.4278071,25.2586667 C11.5776268,23.0938039 10.7041006,20.870902 9.81306499,18.5957647 C8.91813836,16.3206275 8.01153878,14.0319477 7.08937526,11.7239216 C6.16526625,9.41783007 5.22948428,7.15043137 4.28008386,4.92172549 C3.87542138,3.96214379 3.34235639,3.24245752 2.6789434,2.76266667 C2.01747589,2.28287582 1.12449476,1.95011765 0,1.76439216 L0,0.650039216 Z" id="Fill-1" fill="#000000"></path>
                    <path d="M52.7800486,16.3444235 L49.235361,5.47948235 L49.1497593,5.47948235 L45.389122,16.3444235 L52.7800486,16.3444235 Z M34.928208,30.1809725 C35.7355874,30.0881098 36.4048369,29.9101229 36.9379019,29.6470118 C37.4709669,29.3839007 37.9164847,29.0356654 38.2783463,28.6023059 C38.636317,28.1689464 38.9553778,27.6659399 39.2296922,27.0932863 C39.5020612,26.5206327 39.7822122,25.8628549 40.0720906,25.1199529 L48.5447111,3.90081569 L47.766514,1.6721098 C48.6867321,1.48638431 49.5952771,1.26196601 50.4902038,0.998854902 C51.3831849,0.735743791 52.2469836,0.402985621 53.0835455,0.000580392157 L62.4647111,27.3486588 C62.8090633,28.3391948 63.4141115,29.058881 64.2798558,29.5077176 C65.1436545,29.9565542 66.0230172,30.1809725 66.9159983,30.1809725 L66.9159983,31.2953255 C66.3673694,31.2643712 65.7487027,31.233417 65.0580528,31.2024627 C64.3654574,31.1715085 63.6748075,31.1482928 62.9822122,31.1328157 C62.2915623,31.1173386 61.5989669,31.1096 60.9063715,31.1096 L59.0912268,31.1096 C57.8811304,31.1096 56.6768704,31.1250771 55.4823379,31.1560314 C54.28586,31.185051 53.0835455,31.233417 51.8734491,31.2953255 L51.8734491,30.1809725 C53.3714784,30.0571556 54.4804092,29.7940444 55.202187,29.3916392 C55.9220193,28.989234 56.2819354,28.3856261 56.2819354,27.5808157 C56.2819354,27.3022275 56.2313526,26.9462536 56.130187,26.5128941 C56.0290214,26.0795346 55.9006189,25.6384366 55.7410885,25.1896 C55.5815581,24.7407634 55.4239732,24.2919268 55.2663883,23.8430902 C55.1068579,23.3942536 54.9706734,23.0150641 54.8558893,22.7055216 L53.3870423,18.1088157 L44.7840738,18.1088157 L42.5778851,24.6556392 C42.4339187,25.0889987 42.2821702,25.506881 42.1245853,25.9092863 C41.9650549,26.3116915 41.8872352,26.8224366 41.8872352,27.4415216 C41.8872352,27.8129725 42.0098013,28.1534693 42.2549333,28.4630118 C42.4981199,28.7725542 42.8171807,29.0434039 43.2062792,29.2755608 C43.5953778,29.5077176 44.0117132,29.7011817 44.4591765,29.8559529 C44.9066398,30.0107242 45.3171388,30.1190641 45.6906734,30.1809725 L45.6906734,31.2953255 C44.7685099,31.233417 43.8385644,31.185051 42.9027824,31.1560314 C41.9650549,31.1250771 41.0370549,31.1096 40.1148914,31.1096 C39.2491472,31.1096 38.3853484,31.1250771 37.5215497,31.1560314 C36.6558055,31.185051 35.7920067,31.233417 34.928208,31.2953255 L34.928208,30.1809725 Z" id="Fill-3" fill="#000000"></path>
                    <path d="M80.5317233,6.26881569 C80.5317233,5.40209673 80.4227757,4.70562614 80.206826,4.17940392 C79.9908763,3.6531817 79.6893249,3.22756078 79.3002264,2.90254118 C78.9111279,2.57752157 78.4422642,2.32988758 77.8955807,2.15963922 C77.3469518,1.98939085 76.7282851,1.85783529 76.0356897,1.76497255 L76.0356897,0.650619608 C78.6290314,0.836345098 81.2379371,0.929207843 83.8604612,0.929207843 C86.5121677,0.929207843 89.1774927,0.836345098 91.8564361,0.650619608 L91.8564361,1.76497255 C91.1930231,1.85783529 90.5315556,1.98939085 89.8681426,2.15963922 C89.2047296,2.32988758 88.6152453,2.57752157 88.0977442,2.90254118 C87.5782977,3.22756078 87.1522348,3.6531817 86.821501,4.17940392 C86.4907673,4.70562614 86.3254004,5.40209673 86.3254004,6.26881569 L86.3254004,29.2059137 C86.7281174,29.3297307 87.2903648,29.4148549 88.0101971,29.4612863 C88.7300294,29.5077176 89.5082264,29.5309333 90.3447883,29.5309333 C91.9576017,29.5309333 93.3700294,29.360685 94.5801258,29.0201882 C95.7902222,28.6796915 96.8855346,28.1457307 97.8660629,27.4183059 C98.8465912,26.690881 99.7240084,25.7777307 100.502205,24.6788549 C101.282348,23.5799791 102.029417,22.2876392 102.751195,20.8018353 L103.830943,21.3125804 C103.081929,22.9222013 102.426298,24.5550379 101.86405,26.2110902 C101.301803,27.8671425 100.819321,29.5618876 100.416604,31.2953255 C98.4283103,31.233417 96.4322348,31.185051 94.4303229,31.1560314 C92.4264654,31.1250771 90.4303899,31.1096 88.4420964,31.1096 C86.3682013,31.1096 84.2845786,31.1250771 82.1951195,31.1560314 C80.1056604,31.185051 78.0239832,31.233417 75.9500881,31.2953255 L75.9500881,30.1809725 C76.5259539,30.1809725 77.0882013,30.1500183 77.6348847,30.0881098 C78.1815681,30.0262013 78.6718323,29.8791686 79.1056771,29.6470118 C79.5375765,29.4148549 79.8838742,29.0820967 80.1426247,28.6487373 C80.4033208,28.2153778 80.5317233,27.6272471 80.5317233,26.8843451 L80.5317233,6.26881569 Z" id="Fill-5" fill="#000000"></path>
                    <path d="M113.255688,30.1805856 C114.234271,30.1186771 115.02025,29.9871216 115.61168,29.785919 C116.201164,29.5847163 116.656409,29.2751739 116.973525,28.8572915 C117.288694,28.4394092 117.498808,27.9054484 117.599973,27.2554092 C117.701139,26.6053699 117.751722,25.8160366 117.751722,24.8874092 L117.751722,7.24348758 C117.751722,6.37676863 117.701139,5.61838954 117.599973,4.96835033 C117.498808,4.31831111 117.288694,3.77661176 116.973525,3.34325229 C116.656409,2.90989281 116.201164,2.57713464 115.61168,2.34497778 C115.02025,2.11282092 114.234271,1.98126536 113.255688,1.95031111 L113.255688,0.65023268 C114.724535,0.712141176 116.201164,0.774049673 117.685575,0.83595817 C119.169986,0.897866667 120.646615,0.928820915 122.117407,0.928820915 C124.911135,0.928820915 127.693189,0.897866667 130.45968,0.83595817 C133.22617,0.774049673 136.051026,0.712141176 138.9323,0.65023268 C138.903118,1.20740915 138.889499,1.76458562 138.889499,2.32176209 L138.889499,3.94686013 C138.889499,4.90644183 138.903118,5.85054641 138.9323,6.77917386 C138.959537,7.70780131 139.062648,8.55904314 139.235797,9.33289935 L138.284451,9.51862484 C137.591856,7.16610196 136.490707,5.39397124 134.977114,4.20223268 C133.46352,3.01049412 131.267059,2.41462484 128.383839,2.41462484 L123.543453,2.41462484 L123.543453,13.6974484 L125.790497,13.6974484 C126.541457,13.6974484 127.274908,13.5968471 127.996686,13.3956444 C128.716518,13.1944418 129.385768,12.8694222 130.00638,12.4205856 C130.625047,11.971749 131.165894,11.3758797 131.626975,10.6329778 C132.088057,9.89007582 132.432409,8.97692549 132.663923,7.8935268 L133.527722,7.8935268 C133.500485,8.97692549 133.46352,10.0758013 133.420719,11.1901542 C133.377919,12.3045072 133.356518,13.403383 133.356518,14.4867817 C133.356518,15.6011346 133.377919,16.707749 133.420719,17.8066248 C133.46352,18.9055007 133.500485,20.012115 133.527722,21.126468 L132.663923,21.126468 C132.432409,19.9811608 132.103621,19.0215791 131.669776,18.2477229 C131.237877,17.4738667 130.733994,16.8547817 130.158128,16.390468 C129.580317,15.9261542 128.924686,15.5933961 128.191235,15.3921935 C127.455839,15.1909908 126.656242,15.0903895 125.790497,15.0903895 L123.543453,15.0903895 L123.543453,28.8805072 C124.236049,29.0971869 125.006464,29.2596967 125.856644,29.3680366 C126.706824,29.4763765 127.650388,29.5305464 128.687336,29.5305464 C131.512191,29.5305464 134.060787,28.8108601 136.338958,27.3714876 C138.615185,25.932115 140.545114,23.6956706 142.13069,20.6621542 L142.953634,21.3121935 C142.231856,22.9527686 141.547042,24.5933438 140.899193,26.233919 C140.249399,27.8744941 139.681315,29.5615007 139.192996,31.2949386 C136.944007,31.2330301 134.710581,31.1865987 132.490774,31.1556444 C130.272912,31.1246902 128.039487,31.1092131 125.790497,31.1092131 L121.771109,31.1092131 C120.502648,31.1092131 119.329516,31.1169516 118.247822,31.1324288 C117.168074,31.1479059 116.201164,31.1711216 115.352929,31.2020758 C114.500803,31.2330301 113.802371,31.2639843 113.255688,31.2949386 L113.255688,30.1805856 Z" id="Fill-7" fill="#000000"></path>
                    <path d="M151.597457,30.1805856 C152.95152,29.9639059 154.01765,29.731749 154.795847,29.484115 C155.574044,29.236481 156.165474,28.8572915 156.568191,28.3465464 C156.972854,27.8358013 157.231604,27.1625464 157.346388,26.3267817 C157.461172,25.491017 157.519537,24.3766641 157.519537,22.9837229 L157.692686,4.92191895 C157.317206,4.45760523 156.893088,4.0552 156.418388,3.71470327 C155.941743,3.37420654 155.445642,3.08787974 154.926195,2.85572288 C154.406749,2.62356601 153.873684,2.4223634 153.327,2.25211503 C152.778371,2.08186667 152.231688,1.91935686 151.683059,1.76458562 L151.683059,0.65023268 C152.434019,0.712141176 153.18887,0.774049673 153.953449,0.83595817 C154.716082,0.897866667 155.472879,0.928820915 156.221894,0.928820915 C158.210187,0.928820915 160.171244,0.83595817 162.101172,0.65023268 C164.982447,4.48855948 167.900686,8.23402353 170.853944,11.8866248 C173.809147,15.5392261 176.653457,19.3311216 179.392711,23.2623111 L179.480258,23.2623111 L179.480258,19.5013699 C179.480258,17.9846118 179.456912,16.4136837 179.414112,14.7885856 C179.371311,13.1634876 179.307109,11.5848209 179.219562,10.0525856 C179.133961,8.52035033 179.003613,7.22801046 178.830464,6.17556601 C178.71568,5.37075556 178.52113,4.71297778 178.246816,4.20223268 C177.972501,3.69148758 177.620367,3.27360523 177.188468,2.94858562 C176.756569,2.62356601 176.258522,2.37593203 175.696275,2.20568366 C175.134028,2.03543529 174.507579,1.88840261 173.816929,1.76458562 L173.816929,0.65023268 C174.824694,0.712141176 175.840242,0.774049673 176.863571,0.83595817 C177.8869,0.897866667 178.902447,0.928820915 179.912158,0.928820915 C181.927688,0.928820915 183.931545,0.83595817 185.919839,0.65023268 L185.919839,1.76458562 C184.795344,1.82649412 183.902363,1.99674248 183.240896,2.27533072 C182.575537,2.55391895 182.079436,3.01823268 181.748703,3.6682719 C181.417969,4.31831111 181.200074,5.19276863 181.100854,6.29164444 C180.997743,7.39052026 180.949105,8.7912 180.949105,10.4936837 L180.949105,31.8056837 L178.398564,31.8056837 C177.534766,30.3817882 176.554237,28.8650301 175.458925,27.2554092 C174.363613,25.6457882 173.217717,24.0284288 172.023185,22.4033307 C170.826707,20.7782327 169.61661,19.1763503 168.39095,17.5976837 C167.16529,16.019017 165.992158,14.5332131 164.867663,13.1402719 C163.745114,11.7473307 162.706221,10.470468 161.75682,9.30968366 C160.805474,8.14889935 159.998095,7.19705621 159.334682,6.45415425 L159.334682,22.1943895 C159.334682,23.7730562 159.393047,25.0344418 159.507831,25.9785464 C159.622615,26.922651 159.875529,27.6732915 160.264627,28.230468 C160.653726,28.7876444 161.22181,29.1977882 161.97277,29.4608993 C162.721784,29.7240105 163.72955,29.9639059 164.998011,30.1805856 L164.998011,31.2949386 C163.931881,31.2330301 162.879369,31.1865987 161.842422,31.1556444 C160.805474,31.1246902 159.752963,31.1092131 158.686833,31.1092131 C157.476736,31.1092131 156.293877,31.1246902 155.142145,31.1556444 C153.988468,31.1865987 152.807554,31.2330301 151.597457,31.2949386 L151.597457,30.1805856 Z" id="Fill-9" fill="#000000"></path>
                    <path d="M195.472597,30.1805856 C196.336396,30.1186771 197.056228,30.0335529 197.634039,29.9252131 C198.209905,29.8168732 198.670987,29.6001935 199.017285,29.2751739 C199.363582,28.9501542 199.606769,28.5013176 199.752681,27.9286641 C199.894702,27.3560105 199.968631,26.5898928 199.968631,25.6303111 L199.968631,7.52207582 C199.968631,6.40772288 199.931666,5.51004967 199.859683,4.82905621 C199.7877,4.14806275 199.600932,3.6063634 199.297436,3.20395817 C198.995884,2.80155294 198.548421,2.49201046 197.956991,2.27533072 C197.367507,2.05865098 196.565964,1.88840261 195.558199,1.76458562 L195.558199,0.65023268 C198.036756,0.83595817 200.530878,0.928820915 203.036673,0.928820915 C205.544413,0.928820915 208.02297,0.83595817 210.472345,0.65023268 L210.472345,1.76458562 C209.406216,1.88840261 208.556035,2.05865098 207.921805,2.27533072 C207.287574,2.49201046 206.812874,2.80155294 206.495758,3.20395817 C206.176698,3.6063634 205.976312,4.14806275 205.888765,4.82905621 C205.803163,5.51004967 205.760362,6.40772288 205.760362,7.52207582 L205.760362,13.651017 L220.112262,13.651017 L220.112262,7.52207582 C220.112262,6.40772288 220.069461,5.51004967 219.981914,4.82905621 C219.896312,4.14806275 219.701763,3.6063634 219.398266,3.20395817 C219.096714,2.80155294 218.633687,2.49201046 218.015021,2.27533072 C217.396354,2.05865098 216.538392,1.88840261 215.443079,1.76458562 L215.443079,0.65023268 C218.007239,0.83595817 220.544161,0.928820915 223.051901,0.928820915 C225.557696,0.928820915 228.036253,0.83595817 230.487574,0.65023268 L230.487574,1.76458562 C229.419499,1.88840261 228.584882,2.05865098 227.977888,2.27533072 C227.37284,2.49201046 226.91954,2.80155294 226.617989,3.20395817 C226.314492,3.6063634 226.119943,4.14806275 226.034341,4.82905621 C225.94874,5.51004967 225.903993,6.40772288 225.903993,7.52207582 L225.903993,25.6303111 C225.903993,26.5898928 225.975977,27.3560105 226.119943,27.9286641 C226.263909,28.5013176 226.509042,28.9501542 226.855339,29.2751739 C227.201637,29.6001935 227.668555,29.8168732 228.259985,29.9252131 C228.851415,30.0335529 229.592647,30.1186771 230.487574,30.1805856 L230.487574,31.2949386 C229.24635,31.2330301 228.001234,31.1865987 226.746392,31.1556444 C225.493494,31.1246902 224.246434,31.1092131 223.007155,31.1092131 C221.769821,31.1092131 220.528597,31.1246902 219.291264,31.1556444 C218.050039,31.1865987 216.810761,31.2330301 215.573427,31.2949386 L215.573427,30.1805856 C216.437226,30.1186771 217.157058,30.0335529 217.73487,29.9252131 C218.310735,29.8168732 218.777654,29.6001935 219.139515,29.2751739 C219.499431,28.9501542 219.7504,28.5013176 219.896312,27.9286641 C220.038333,27.3560105 220.112262,26.5898928 220.112262,25.6303111 L220.112262,15.6011346 L205.760362,15.6011346 L205.760362,25.6303111 C205.760362,26.5898928 205.832345,27.3560105 205.976312,27.9286641 C206.120278,28.5013176 206.373192,28.9501542 206.733109,29.2751739 C207.093025,29.6001935 207.567725,29.8168732 208.159155,29.9252131 C208.750584,30.0335529 209.478199,30.1186771 210.341997,30.1805856 L210.341997,31.2949386 C209.073536,31.2330301 207.812857,31.1865987 206.55996,31.1556444 C205.307062,31.1246902 204.046383,31.1092131 202.777922,31.1092131 C201.567826,31.1092131 200.349947,31.1246902 199.124287,31.1556444 C197.900572,31.1865987 196.682694,31.2330301 195.472597,31.2949386 L195.472597,30.1805856 Z" id="Fill-11" fill="#000000"></path>
                    <path d="M261.912922,9.89065621 C261.62499,8.74534902 261.156126,7.67742745 260.508277,6.6868915 C259.858482,5.69635556 259.109468,4.8296366 258.259287,4.08673464 C257.409107,3.34383268 256.481107,2.75570196 255.471396,2.32234248 C254.461686,1.88898301 253.440302,1.67230327 252.401409,1.67230327 C251.105711,1.67230327 250.002616,2.03601569 249.096017,2.76344052 C248.187472,3.49086536 247.734172,4.58200261 247.734172,6.03685229 C247.734172,7.15120523 248.144671,8.0953098 248.965669,8.86916601 C249.786667,9.64302222 250.817778,10.3472314 252.057057,10.9817935 C253.29439,11.6163556 254.628998,12.2586562 256.055044,12.9086954 C257.48109,13.5587346 258.813753,14.3403294 260.053031,15.2534797 C261.29231,16.1666301 262.323421,17.2577673 263.144419,18.5268915 C263.965417,19.7960157 264.375916,21.3746824 264.375916,23.2628915 C264.375916,24.5939242 264.130784,25.8011399 263.642465,26.8845386 C263.152201,27.9679373 262.459606,28.8888261 261.566625,29.6472052 C260.673644,30.4055843 259.59195,30.993715 258.325434,31.4115974 C257.055027,31.8294797 255.644545,32.0384209 254.088151,32.0384209 C253.366373,32.0384209 252.646541,31.9687739 251.926709,31.8294797 C251.206876,31.6901856 250.492881,31.5354144 249.786667,31.365166 C249.080453,31.1949176 248.368403,31.0401464 247.646625,30.9008523 C246.926792,30.7615582 246.20696,30.6919111 245.487128,30.6919111 C245.370398,30.6919111 245.21865,30.7151268 245.031883,30.7615582 C244.845115,30.8079895 244.642784,30.8621595 244.426834,30.924068 C244.210885,30.9859765 244.000771,31.047885 243.800386,31.1097935 C243.598055,31.171702 243.438524,31.2336105 243.32374,31.295519 C243.094172,29.562081 242.84904,27.813166 242.590289,26.0487739 C242.331539,24.2843817 241.99886,22.5045124 241.596143,20.709166 L242.545543,20.709166 C242.862658,21.8544732 243.382105,22.9843033 244.101937,24.0986562 C244.821769,25.2130092 245.666113,26.2112837 246.631078,27.0934797 C247.597987,27.9756758 248.640771,28.679885 249.765266,29.2061072 C250.889761,29.7323294 251.998692,29.9954405 253.094004,29.9954405 C254.04535,29.9954405 254.909149,29.9180549 255.687346,29.7632837 C256.465543,29.6085124 257.134792,29.3531399 257.69704,28.997166 C258.259287,28.6411922 258.691187,28.1614013 258.994683,27.5577935 C259.296235,26.9541856 259.447983,26.188068 259.447983,25.2594405 C259.447983,23.9903163 259.031648,22.9301333 258.195086,22.0788915 C257.358524,21.2276497 256.31574,20.4537935 255.060897,19.7573229 C253.806055,19.0608523 252.451992,18.3875974 250.998709,17.7375582 C249.541535,17.087519 248.187472,16.344617 246.934574,15.5088523 C245.679732,14.6730876 244.635002,13.6825516 243.800386,12.5372444 C242.963824,11.3919373 242.545543,9.98351895 242.545543,8.31198954 C242.545543,5.4022902 243.368486,3.28966275 245.010482,1.97410719 C246.652478,0.658551634 249.1466,0.000773856209 252.488956,0.000773856209 C253.3547,0.000773856209 254.189317,0.070420915 254.996696,0.209715033 C255.80213,0.34900915 256.566709,0.511518954 257.286541,0.697244444 C258.006373,0.882969935 258.68535,1.04547974 259.319581,1.18477386 C259.951866,1.32406797 260.543296,1.39371503 261.091925,1.39371503 L262.646373,1.39371503 C262.619136,1.91993725 262.589954,2.41520523 262.560771,2.87951895 C262.531589,3.34383268 262.517971,3.82362353 262.517971,4.3188915 C262.517971,5.21656471 262.55299,6.14519216 262.624973,7.10477386 C262.696956,8.06435556 262.763103,8.99298301 262.819522,9.89065621 L261.912922,9.89065621 Z" id="Fill-13" fill="#000000"></path>
                    <g id="Group-17" transform="translate(275.203354, 0.003869)">
                        <mask id="mask-2" fill="white">
                            <use xlink:href="#path-1"></use>
                        </mask>
                        <g id="Clip-16"></g>
                        <path d="M0.282492243,0.646169935 C2.79023229,0.831895425 5.30964528,0.92475817 7.84656771,0.92475817 C10.4126725,0.92475817 12.9612679,0.831895425 15.4981904,0.646169935 L15.3678423,1.76052288 C14.3017124,1.82243137 13.459314,1.94624837 12.8406474,2.13197386 C12.2200352,2.31769935 11.7589535,2.60402614 11.4574021,2.99095425 C11.1539052,3.37981699 10.959356,3.90410458 10.8718088,4.56962092 C10.7862071,5.2370719 10.7434063,6.09411765 10.7434063,7.14656209 L10.7434063,22.5617778 C10.7434063,23.3975425 10.8951547,24.2255686 11.1967061,25.0458562 C11.5002029,25.8661438 11.9749031,26.6013072 12.6227522,27.2513464 C13.2725468,27.9013856 14.1071631,28.4276078 15.1304922,28.8300131 C16.1538214,29.2324183 17.3853182,29.4336209 18.8269283,29.4336209 C20.5545258,29.4336209 21.9883539,29.1472941 23.1284126,28.5746405 C24.2665258,28.0019869 25.1595069,27.2977778 25.807356,26.4620131 C26.4571505,25.6262484 26.9104503,24.713098 27.1692008,23.7225621 C27.4298969,22.7339608 27.5582994,21.8188758 27.5582994,20.9831111 L27.5582994,9.56099346 C27.5582994,8.01328105 27.4863161,6.74415686 27.3423497,5.75362092 C27.1964377,4.76308497 26.9376872,3.97375163 26.5641526,3.38562092 C26.1886725,2.7974902 25.6847899,2.37960784 25.0505593,2.13197386 C24.4163287,1.88433987 23.5953308,1.76052288 22.5875656,1.76052288 L22.5875656,0.646169935 C23.2509786,0.708078431 24.077813,0.769986928 25.0739052,0.831895425 C26.0661065,0.893803922 27.1108361,0.92475817 28.2080939,0.92475817 C29.1010751,0.92475817 29.9862742,0.893803922 30.8656369,0.831895425 C31.7430541,0.769986928 32.6165803,0.708078431 33.480379,0.646169935 L33.480379,1.76052288 C32.5290331,1.82243137 31.7878004,1.94624837 31.2547354,2.13197386 C30.7216704,2.31769935 30.3111715,2.60402614 30.0232386,2.99095425 C29.7333602,3.37981699 29.5543748,3.90410458 29.4823916,4.56962092 C29.4104084,5.2370719 29.373444,6.09411765 29.373444,7.14656209 L29.373444,19.8687582 C29.373444,23.7399739 28.3578969,26.7328627 26.3268025,28.8532288 C24.2957082,30.9735948 21.4475069,32.0337778 17.7899807,32.0337778 C15.599356,32.0337778 13.7102826,31.747451 12.1266516,31.1747974 C10.5410751,30.6021438 9.229813,29.8515033 8.19286541,28.9228758 C7.15591782,27.9942484 6.38355723,26.957281 5.87967463,25.8119739 C5.37579203,24.6686013 5.12287799,23.5213595 5.12287799,22.3760523 L5.12287799,7.14656209 C5.12287799,6.31079739 5.08007715,5.57563399 4.99447547,4.9410719 C4.9069283,4.30844444 4.70459706,3.76481046 4.38942725,3.31597386 C4.07036646,2.86713725 3.58982977,2.5111634 2.94003522,2.24805229 C2.29218616,1.98494118 1.406987,1.82243137 0.282492243,1.76052288 L0.282492243,0.646169935 Z" id="Fill-15" fill="#000000" mask="url(#mask-2)"></path>
                    </g>
                    <path d="M131.602851,46.4673569 C131.672889,46.3744941 132.396612,45.4245856 132.606725,45.4245856 C132.861585,45.4245856 133.725384,46.5137882 133.865459,46.676298 C133.935497,46.7691608 134.14561,47.0013176 134.14561,47.1406118 C134.052226,47.2566902 133.958843,47.2799059 133.842113,47.2799059 L130.29548,47.2799059 C130.41221,47.3495529 130.80909,47.6049255 130.80909,47.7190693 C130.80909,47.8815791 130.528939,48.0924549 130.41221,48.162102 L130.41221,53.1051085 L132.139807,53.1051085 C132.209845,53.0103111 133.003606,52.0120366 133.188428,52.0120366 C133.330449,52.0120366 133.587254,52.2925595 133.678692,52.3854222 C133.842113,52.5692131 134.799296,53.4746248 134.799296,53.7299974 C134.799296,53.8692915 134.635874,53.9157229 134.519145,53.9157229 L130.41221,53.9157229 L130.41221,60.4354614 C130.41221,61.2944418 130.528939,62.1998536 130.575631,63.0820497 C129.853853,63.430285 129.060092,63.6624418 128.266331,63.8462327 C128.313023,62.7318797 128.429753,61.5730301 128.429753,60.4818928 L128.429753,53.9157229 L125.676881,53.9157229 L125.256654,54.2175268 L124.439547,52.9638797 C124.906465,53.0103111 125.420075,53.1051085 125.863648,53.1051085 L128.429753,53.1051085 L128.429753,48.5103373 C128.429753,48.0924549 128.383061,47.6977882 128.359715,47.3031216 L127.099036,47.2799059 C126.305275,48.6496314 125.441476,49.9477752 124.462893,51.2014222 C124.439547,51.2246379 124.392855,51.2478536 124.369509,51.2478536 C124.299472,51.2478536 124.229434,51.2014222 124.229434,51.1317752 C124.229434,51.0156967 124.626314,50.1354353 124.673006,49.9729255 C125.069887,48.9495007 125.39673,47.8370824 125.700226,46.7923765 C126.027069,45.6548078 126.351966,44.5191739 126.56208,43.3603242 C126.610717,43.1262327 126.678809,42.8727948 126.702155,42.6154876 C126.725501,42.4549124 126.657409,41.7352261 126.888922,41.7352261 C127.07569,41.7352261 129.153476,42.6154876 129.363589,42.7547817 C129.455027,42.8244288 129.573702,42.9172915 129.573702,43.0353046 C129.573702,43.3351739 128.990055,43.5673307 128.756595,43.6601935 C128.359715,44.6120366 127.916143,45.5406641 127.495916,46.4673569 L131.602851,46.4673569 Z M121.990172,60.3425987 L121.990172,55.7246118 L119.865694,55.7246118 L119.702273,55.9567686 L119.702273,60.3425987 L121.990172,60.3425987 Z M119.517451,41.919017 C120.332612,42.3368993 121.336486,42.7547817 121.733367,43.6369778 C121.850096,43.8923503 121.990172,44.2405856 121.990172,44.5423895 C121.990172,44.7977621 121.850096,45.0744157 121.733367,45.2852915 C121.5466,45.5851608 121.243103,45.7012392 120.892914,45.7012392 C120.40265,45.7012392 120.029115,45.3549386 119.982423,44.8674092 C119.88904,44.1709386 119.865694,43.5905464 119.632235,42.9405072 C119.538851,42.6851346 119.400721,42.4549124 119.2373,42.2440366 C119.165317,42.1743895 119.027187,42.0350954 119.027187,41.919017 C119.027187,41.8493699 119.095279,41.8048732 119.165317,41.8048732 C119.282046,41.8048732 119.400721,41.8745203 119.517451,41.919017 L119.517451,41.919017 Z M121.990172,61.1551477 L119.702273,61.1551477 L119.702273,62.5945203 C119.073878,62.8015268 118.443539,63.0124026 117.789853,63.1497621 C117.813199,62.3391477 117.906583,61.5265987 117.906583,60.7140497 L117.906583,55.610468 C117.906583,55.1442196 117.673124,54.5193307 117.673124,54.2407425 C117.673124,54.1710954 117.719816,54.0782327 117.813199,54.0782327 C118.023312,54.0782327 119.492159,54.797919 119.702273,54.8907817 L121.826751,54.8907817 C121.918189,54.7514876 122.270323,54.0318013 122.503782,54.0318013 C122.713895,54.0318013 124.392855,55.0765072 124.392855,55.2622327 C124.392855,55.4479582 123.879245,55.7942588 123.762516,55.8871216 L123.762516,59.6944941 C123.762516,60.4818928 123.832553,61.2712261 123.879245,62.0373438 C123.250851,62.2927163 122.571874,62.4552261 121.896788,62.5945203 L121.990172,61.1551477 Z M122.807279,48.4406902 C122.898717,48.4406902 122.992101,48.5103373 123.062138,48.5799843 L124.066013,49.6227556 C124.13605,49.6924026 124.229434,49.8104157 124.229434,49.9013438 C124.229434,50.0638536 123.995975,50.0870693 123.879245,50.0870693 L118.536922,50.0870693 L118.116696,50.3888732 L117.299589,49.1371608 C117.766507,49.1816575 118.256771,49.2300235 118.721744,49.2513046 C119.795656,49.2745203 120.892914,49.2745203 121.990172,49.2745203 C122.013518,49.2300235 122.597166,48.4406902 122.807279,48.4406902 L122.807279,48.4406902 Z M122.828679,51.0853438 C122.945409,51.0853438 123.062138,51.2014222 123.132176,51.294285 C123.22556,51.3871477 124.25278,52.3622065 124.25278,52.5924288 C124.159396,52.7104418 124.066013,52.7317229 123.972629,52.7317229 L118.326809,52.7317229 L117.906583,53.0354614 L117.089476,51.7818144 C117.533048,51.8282458 118.070004,51.9191739 118.511631,51.9191739 L121.918189,51.9191739 C121.966826,51.8746771 122.643857,51.0853438 122.828679,51.0853438 L122.828679,51.0853438 Z M123.832553,45.3297882 C123.949283,45.3297882 124.042667,45.3994353 124.089358,45.4690824 L125.209962,46.6298667 C125.28,46.7227294 125.441476,46.8852392 125.441476,47.0245333 C125.441476,47.1406118 125.256654,47.1870431 125.139925,47.1870431 L117.556394,47.1870431 L117.136168,47.4888471 L116.321006,46.2119843 C116.785979,46.2603503 117.299589,46.3512784 117.743161,46.3512784 L122.807279,46.3512784 C122.828679,46.3299974 123.599094,45.3297882 123.832553,45.3297882 L123.832553,45.3297882 Z" id="Fill-18" fill="#000000"></path>
                    <path d="M257.461441,61.0620915 L257.461441,51.9673464 L254.988719,51.9673464 L254.685223,52.3852288 L254.685223,61.0620915 L257.461441,61.0620915 Z M252.910933,53.1977778 C252.910933,52.4297255 252.887587,51.6868235 252.81755,50.9226405 C252.794204,50.6904837 252.630782,50.5047582 252.630782,50.2726013 C252.630782,50.2029542 252.677474,50.1352418 252.770858,50.1352418 C252.957625,50.1352418 254.965374,50.9690719 255.338908,51.1315817 L257.251327,51.1315817 C257.368057,50.9922876 257.811629,50.2726013 258.09178,50.2726013 C258.418623,50.2726013 259.560627,51.0851503 259.747395,51.2012288 C259.864124,51.2689412 260.097583,51.4101699 260.097583,51.5939608 C260.097583,51.8048366 259.513935,52.222719 259.397206,52.3368627 L259.397206,60.1798954 C259.397206,60.9692288 259.467244,61.7585621 259.49059,62.5478954 C258.813558,62.7800523 258.09178,62.8941961 257.368057,63.0354248 L257.461441,61.8746405 L254.685223,61.8746405 L254.685223,62.824549 C254.054883,62.9638431 253.447889,63.1263529 252.81755,63.2888627 C252.864242,62.5478954 252.910933,61.8049935 252.910933,61.0853072 L252.910933,53.1977778 Z M248.128912,57.8370458 C248.874036,56.3744575 249.387646,54.8905882 249.761181,53.2887059 L248.103621,53.2887059 C247.56861,54.6352157 246.984963,55.9565752 246.377969,57.2798693 L248.128912,57.8370458 Z M248.523847,42.8242353 C248.477156,42.6617255 248.220351,42.1741961 248.220351,42.104549 C248.220351,41.9671895 248.339026,41.9420392 248.455755,41.9420392 C248.85069,41.9420392 251.325357,42.5475817 251.325357,42.8242353 C251.325357,43.0099608 250.671671,43.4742745 250.578288,43.5439216 L250.578288,44.9600784 L254.264996,44.9600784 L254.264996,43.9153725 C254.264996,43.5439216 254.194958,43.1260392 254.148267,42.7545882 C254.101575,42.5224314 253.961499,42.3367059 253.961499,42.1296993 C253.961499,42.0116863 253.984845,41.9904052 254.078229,41.9904052 C254.24165,41.9904052 254.381726,42.034902 254.521801,42.0600523 C254.731914,42.104549 256.807755,42.5224314 256.807755,43.0099608 C256.807755,43.1976209 256.270799,43.4974902 256.130724,43.5903529 L256.130724,44.9600784 L258.675428,44.9600784 C258.813558,44.7975686 259.303822,44.0546667 259.609265,44.0546667 C259.910816,44.0546667 260.821306,44.9600784 260.938036,45.0529412 C261.054766,45.1438693 261.288225,45.3547451 261.288225,45.5404706 C261.288225,45.7029804 261.124803,45.7726275 260.984728,45.7726275 L256.130724,45.7726275 L256.130724,46.6993203 C256.130724,47.0707712 256.200761,47.4654379 256.224107,47.8368889 C255.52373,47.9993987 254.848644,48.1851242 254.148267,48.3244183 C254.171613,47.8368889 254.264996,47.3029281 254.264996,46.8153987 L254.264996,45.7726275 L250.578288,45.7726275 C250.578288,46.3743007 250.624979,46.9779085 250.671671,47.5583007 C249.971294,47.7440261 249.247571,47.9065359 248.547193,48.0690458 C248.593885,47.4886536 248.665868,46.8850458 248.665868,46.3298039 C248.665868,46.1421438 248.665868,45.9564183 248.640577,45.7726275 L244.837139,45.7726275 L244.463604,46.1421438 L243.741826,44.8672157 C244.162053,44.8904314 244.627026,44.9600784 245.047252,44.9600784 L248.640577,44.9600784 C248.640577,44.2616732 248.710615,43.4974902 248.523847,42.8242353 L248.523847,42.8242353 Z M247.218422,49.0673203 C247.218422,48.8119477 247.078346,48.6030065 247.078346,48.347634 C247.078346,48.2547712 247.101692,48.1851242 247.218422,48.1851242 C247.449935,48.1851242 250.017986,49.1814641 250.017986,49.4600523 C250.017986,49.6689935 249.410992,50.0172288 249.270917,50.1100915 L248.383772,52.4548758 L249.831218,52.4548758 C249.924602,52.3368627 250.344829,51.7816209 250.50825,51.7816209 C250.765055,51.7816209 252.630782,52.986902 252.630782,53.1977778 C252.630782,53.4047843 251.953751,53.7762353 251.815621,53.8923137 C251.278665,55.5619085 250.671671,57.1870065 249.854564,58.7424575 C250.671671,59.4369935 251.79033,60.2495425 251.79033,61.4335425 C251.79033,62.1300131 251.395395,62.6175425 250.695017,62.6175425 C250.39152,62.6175425 250.134715,62.5014641 249.947948,62.2925229 C249.737835,62.0139346 249.551068,61.7121307 249.387646,61.4335425 C249.154187,61.0388758 248.874036,60.6674248 248.570539,60.3191895 C247.28846,61.5031895 245.911051,62.3621699 244.370221,63.174719 C244.253491,63.2192157 243.83521,63.4745882 243.718481,63.4745882 C243.671789,63.4745882 243.625097,63.4300915 243.625097,63.3585098 C243.625097,63.2192157 244.068669,62.872915 244.162053,62.7800523 C245.397441,61.7121307 246.494699,60.504915 247.381843,59.1603399 C246.588082,58.3690719 245.259311,57.7906144 244.232091,57.3959477 C244.885776,56.0745882 245.490824,54.6816471 246.02778,53.2887059 L244.627026,53.2887059 L244.232091,53.6369412 L243.508367,52.3620131 C243.928594,52.3852288 244.370221,52.4548758 244.790447,52.4548758 L246.307931,52.4548758 C246.611428,51.6423268 247.218422,49.8315033 247.218422,49.0673203 L247.218422,49.0673203 Z" id="Fill-20" fill="#000000"></path>
                    <path d="M301.421209,49.1596026 C301.654668,49.1596026 303.170207,50.411315 303.170207,50.7363346 C303.170207,50.8524131 303.078769,50.9452758 302.962039,50.9452758 L291.388304,50.9452758 L290.968077,51.2238641 L290.15097,49.9953673 C290.617888,50.0398641 291.108153,50.1095111 291.575071,50.1095111 L300.510719,50.1095111 C300.55741,50.0650144 301.211096,49.1596026 301.421209,49.1596026 L301.421209,49.1596026 Z M303.569033,53.522217 C303.89393,53.522217 305.434761,54.8900078 305.434761,55.1221647 C305.434761,55.3078902 305.247993,55.3311059 305.107918,55.3311059 L297.314274,55.3311059 C297.641117,55.4936157 298.715029,55.9579294 298.715029,56.3293804 C298.715029,56.5363869 297.897922,56.8401255 297.757847,56.8401255 C296.475767,58.5329359 293.650912,59.7614327 291.971951,60.7597072 C294.934937,60.7152105 298.411532,60.529485 301.351171,60.4346876 C300.884253,59.8794458 299.835633,58.7650928 299.228639,58.4400732 C299.158601,58.3704261 298.948488,58.2543477 298.948488,58.1402039 C298.948488,58.0686222 299.041872,58.0473412 299.065218,58.0473412 C299.50879,58.0473412 300.510719,58.4652235 300.977637,58.6277333 C302.144932,59.0901124 303.032077,59.345485 303.802492,60.3669752 C304.034006,60.6668444 304.430886,61.2240209 304.430886,61.6419033 C304.430886,62.2687268 304.197427,63.2437856 303.475649,63.2437856 C302.355046,63.2437856 302.3317,61.665119 301.81809,61.0615111 C299.322023,61.3652497 296.870702,61.5277595 294.397981,62.0152889 C293.324069,62.2455111 292.180119,62.5240993 291.108153,62.7794719 L289.800782,60.4830536 C290.15097,60.4346876 290.968077,60.3669752 291.318266,60.2741124 C292.34354,59.9723085 295.565276,57.4205176 295.938811,55.3311059 L289.193788,55.3311059 L288.798853,55.6329098 L287.9584,54.3792627 C288.425318,54.4276288 288.936983,54.5204915 289.403901,54.5204915 L302.448429,54.5204915 C302.565159,54.4024784 303.38032,53.522217 303.569033,53.522217 L303.569033,53.522217 Z M292.695675,44.9362824 C292.695675,44.3578248 292.670383,43.7077856 292.532253,43.1506092 C292.485561,42.9648837 292.275448,42.6398641 292.275448,42.5005699 C292.275448,42.3844915 292.390232,42.3593412 292.485561,42.3593412 C292.880496,42.3593412 295.425201,42.9397333 295.425201,43.2415373 C295.425201,43.4272627 294.771515,43.8915765 294.678132,43.9844392 L294.678132,45.7720471 L298.48157,45.7720471 L298.48157,44.3094588 C298.48157,43.9612235 298.434878,43.5897725 298.388186,43.2647529 C298.36484,43.0345307 298.201419,42.7772235 298.201419,42.570217 C298.201419,42.4541386 298.201419,42.4077072 298.318148,42.4077072 C298.48157,42.4077072 298.621645,42.4541386 298.761721,42.5005699 C299.065218,42.570217 299.368714,42.6398641 299.672211,42.7327268 C299.788941,42.7540078 301.117712,43.0577464 301.117712,43.3595503 C301.117712,43.5201255 300.534065,43.9612235 300.442626,44.0328052 L300.442626,45.7720471 L302.635197,45.7720471 L303.35892,44.8453542 C303.428958,44.7505569 303.543742,44.6576941 303.685763,44.6576941 C303.849184,44.6576941 304.197427,44.9362824 304.314157,45.0523608 L305.247993,45.8416941 C305.411415,45.9790536 305.598182,46.1415634 305.598182,46.3524392 C305.598182,46.5381647 305.411415,46.6078118 305.247993,46.6078118 L300.442626,46.6078118 L300.442626,47.4203608 C300.442626,47.9078902 300.510719,48.0452497 300.55741,48.5327791 C299.835633,48.7165699 299.111909,48.8577987 298.388186,48.9738771 C298.411532,48.393485 298.48157,48.1613281 298.48157,47.5828706 L298.48157,46.6078118 L294.678132,46.6078118 L294.678132,47.4648575 C294.678132,47.9291712 294.748169,48.091681 294.794861,48.5792105 C294.047792,48.7649359 293.300723,48.8790797 292.553654,49.0415895 C292.602291,48.3470536 292.695675,47.9988183 292.695675,47.3023477 L292.695675,46.6078118 L288.962274,46.6078118 L288.565394,46.9541124 L287.84167,45.6791843 C288.261897,45.7024 288.705469,45.7720471 289.125696,45.7720471 L292.695675,45.7720471 L292.695675,44.9362824 Z" id="Fill-22" fill="#000000"></path>
                </g>
            </g>
        </g>
    </g>
</svg>